<?xml version="1.0" encoding="UTF-8"?>
<svg version="1.1" xmlns="http://www.w3.org/2000/svg" width="1015" height="629">
<path d="M0 0 C334.95 0 669.9 0 1015 0 C1015 207.57 1015 415.14 1015 629 C680.05 629 345.1 629 0 629 C0 421.43 0 213.86 0 0 Z " fill="#FEFEFE" transform="translate(0,0)"/>
<path d="M0 0 C1.06573242 0.00237671 2.13146484 0.00475342 3.22949219 0.00720215 C20.11898702 0.0659691 36.29274756 1.04721388 52.875 4.4375 C54.3410477 4.70626502 55.80718472 4.97454359 57.2734375 5.2421875 C101.69926958 14.00485918 144.06979474 36.72941393 177.29296875 67.1015625 C179.41552508 69.0218177 181.56595094 70.89415275 183.734375 72.76171875 C196.98384986 84.34785302 207.75376172 98.11394464 217.875 112.4375 C218.6167749 113.48212402 218.6167749 113.48212402 219.37353516 114.54785156 C238.31168042 141.56070793 251.21253931 172.45680882 258.875 204.4375 C259.17921875 205.65179688 259.4834375 206.86609375 259.796875 208.1171875 C274.62046844 273.61326873 260.77158969 344.55966767 225.875 401.4375 C216.55808519 415.8450728 206.14827453 429.0803213 194.453125 441.61328125 C192.66105712 443.57641016 190.95562154 445.53223453 189.27734375 447.5859375 C187.33149525 449.89564385 185.4874725 451.81922048 183.1875 453.75 C180.17818744 456.30707821 177.26508138 458.93406708 174.375 461.625 C145.23004414 487.76714223 109.43719838 505.93998496 71.875 516.4375 C70.80894531 516.76105469 69.74289062 517.08460938 68.64453125 517.41796875 C56.61663735 520.90218663 44.2642557 522.73470628 31.875 524.4375 C31.11082764 524.54497559 30.34665527 524.65245117 29.55932617 524.76318359 C20.69543815 525.83241708 11.7269675 525.68142432 2.8125 525.6875 C1.47833542 525.68851212 1.47833542 525.68851212 0.11721802 525.68954468 C-14.48177641 525.67199643 -28.71931629 524.97489364 -43.125 522.4375 C-44.50220215 522.20401855 -44.50220215 522.20401855 -45.90722656 521.96582031 C-106.68612206 511.3002418 -165.42510164 476.43946433 -203.125 427.4375 C-203.77082031 426.65890625 -204.41664063 425.8803125 -205.08203125 425.078125 C-247.61525363 373.73624709 -266.13086605 303.3527143 -260.3125 237.625 C-259.39176843 228.47243053 -258.02632749 219.4365881 -256.125 210.4375 C-255.95629395 209.63521973 -255.78758789 208.83293945 -255.61376953 208.00634766 C-243.85550997 153.24285687 -214.47906516 100.57744872 -171.125 64.4375 C-170.56538574 63.96940918 -170.00577148 63.50131836 -169.42919922 63.01904297 C-160.62408581 55.67881107 -151.72686475 48.71796499 -142.125 42.4375 C-141.17238281 41.8084375 -140.21976562 41.179375 -139.23828125 40.53125 C-113.85428039 24.33858017 -86.14995934 13.0768463 -57 5.8125 C-56.24444824 5.61817383 -55.48889648 5.42384766 -54.71044922 5.22363281 C-36.67857266 0.91237838 -18.46949772 -0.10907752 0 0 Z " fill="#0718C4" transform="translate(509.125,54.5625)"/>
<path d="M0 0 C0.87543457 -0.00376648 1.75086914 -0.00753296 2.65283203 -0.01141357 C19.8169817 -0.04887054 36.77012224 1.19616766 53.625 4.5625 C54.71603027 4.77720947 55.80706055 4.99191895 56.93115234 5.21313477 C117.2286962 17.5060818 175.88799745 52.43214343 213.625 101.3125 C214.44291016 102.35639893 214.44291016 102.35639893 215.27734375 103.42138672 C248.14007468 145.48038187 268.61823774 195.0827118 273.625 248.3125 C273.73714844 249.47007812 273.84929688 250.62765625 273.96484375 251.8203125 C276.83073161 286.91762406 273.51514735 324.02314992 261.625 357.3125 C261.33222168 358.15232422 261.03944336 358.99214844 260.73779297 359.85742188 C248.33027665 395.4083939 230.72893829 428.05586626 204.9296875 455.82421875 C202.92273803 457.99104385 200.98276718 460.19423857 199.0625 462.4375 C192.80077282 469.62525726 185.9443726 476.21302284 178.625 482.3125 C177.87186523 482.94430176 177.87186523 482.94430176 177.10351562 483.58886719 C119.56618525 531.60346867 47.43050515 552.35652874 -26.82421875 546.8515625 C-80.30184384 541.80491905 -132.25901286 519.79063969 -173.375 485.3125 C-174.1170166 484.70365967 -174.1170166 484.70365967 -174.87402344 484.08251953 C-188.97009203 472.508771 -202.26554099 459.81055848 -213.375 445.3125 C-214.14585937 444.35859375 -214.91671875 443.4046875 -215.7109375 442.421875 C-223.04927565 433.20844099 -229.27915843 423.38045682 -235.375 413.3125 C-235.78105469 412.64911621 -236.18710937 411.98573242 -236.60546875 411.30224609 C-270.34538201 355.755179 -282.1602046 283.83334161 -268.375 220.3125 C-268.18454102 219.41160645 -267.99408203 218.51071289 -267.79785156 217.58251953 C-257.08150532 167.64170409 -233.89619606 122.08260157 -198.375 85.3125 C-197.6948584 84.60512695 -197.0147168 83.89775391 -196.31396484 83.16894531 C-186.86800431 73.39092471 -177.30872123 64.38930262 -166.375 56.3125 C-165.45332031 55.58417969 -164.53164063 54.85585937 -163.58203125 54.10546875 C-116.97304294 17.62029455 -58.63900677 0.13869084 0 0 Z M-61.5 17.5625 C-62.67884766 17.86623535 -63.85769531 18.1699707 -65.07226562 18.48291016 C-123.09646275 33.77776038 -174.17934571 68.54426503 -210.375 116.3125 C-211.00124268 117.12944336 -211.00124268 117.12944336 -211.64013672 117.96289062 C-219.62897277 128.4456632 -226.07420878 139.75573807 -232.375 151.3125 C-232.75398438 152.00037598 -233.13296875 152.68825195 -233.5234375 153.39697266 C-243.37141365 171.44079739 -250.68808939 191.31351971 -255.375 211.3125 C-255.64884521 212.47338135 -255.64884521 212.47338135 -255.92822266 213.65771484 C-271.60740198 281.30920434 -259.64217503 353.31393608 -223.12060547 412.33984375 C-217.39200238 421.38382831 -211.10505787 429.99119762 -204.375 438.3125 C-203.94558105 438.84633301 -203.51616211 439.38016602 -203.07373047 439.93017578 C-191.11416819 454.66959954 -177.59936116 468.92732557 -162.375 480.3125 C-161.28891844 481.15085507 -160.20299079 481.98940955 -159.1171875 482.828125 C-129.64289325 505.30196929 -95.51783707 521.91484765 -59.375 530.3125 C-57.70824219 530.70695313 -57.70824219 530.70695313 -56.0078125 531.109375 C-52.14569117 531.95233244 -48.27347039 532.66459718 -44.375 533.3125 C-43.56530762 533.45075195 -42.75561523 533.58900391 -41.92138672 533.73144531 C-14.06024145 538.29007407 15.85070646 538.36917469 43.625 533.3125 C45.45298273 533.00696011 47.28111071 532.70228806 49.109375 532.3984375 C59.14247547 530.66970107 68.84468867 528.41345662 78.4609375 525.06494141 C79.98640101 524.53453995 81.51542209 524.01431631 83.046875 523.50146484 C118.83827929 511.49643132 150.5046193 492.79100323 178.34765625 467.3671875 C180.2987616 465.60684202 182.28513544 463.92065677 184.3125 462.25 C187.43204527 459.59475915 190.059292 456.66252892 192.703125 453.5390625 C194.03065247 452.00107336 195.39847943 450.49728607 196.796875 449.0234375 C218.86968108 425.72436441 235.53982668 396.58518078 246.74755859 366.64257812 C247.54401548 364.5275574 248.3707318 362.42761267 249.20703125 360.328125 C267.77866618 312.40834799 268.46093068 256.64918308 255.625 207.3125 C255.40473145 206.46429688 255.18446289 205.61609375 254.95751953 204.7421875 C244.17274138 164.26598306 223.11190122 126.91154789 194.625 96.3125 C193.60792969 95.14267578 193.60792969 95.14267578 192.5703125 93.94921875 C155.12498509 50.94881529 97.64281536 21.35917086 41.45776367 13.70629883 C39.45880111 13.4284115 37.46425585 13.11779859 35.47387695 12.78393555 C24.57331109 11.0767642 13.78065458 10.97411035 2.7668457 10.99682617 C-0.40774429 10.99997053 -3.58138483 10.97650078 -6.75585938 10.95117188 C-25.39904876 10.8916604 -43.44705831 12.82156982 -61.5 17.5625 Z " fill="#F6F6FC" transform="translate(510.375,43.6875)"/>
<path d="M0 0 C0.87543457 -0.00376648 1.75086914 -0.00753296 2.65283203 -0.01141357 C19.8169817 -0.04887054 36.77012224 1.19616766 53.625 4.5625 C54.71603027 4.77720947 55.80706055 4.99191895 56.93115234 5.21313477 C117.2286962 17.5060818 175.88799745 52.43214343 213.625 101.3125 C214.44291016 102.35639893 214.44291016 102.35639893 215.27734375 103.42138672 C248.14007468 145.48038187 268.61823774 195.0827118 273.625 248.3125 C273.73714844 249.47007812 273.84929688 250.62765625 273.96484375 251.8203125 C276.83073161 286.91762406 273.51514735 324.02314992 261.625 357.3125 C261.33222168 358.15232422 261.03944336 358.99214844 260.73779297 359.85742188 C248.33027665 395.4083939 230.72893829 428.05586626 204.9296875 455.82421875 C202.92273803 457.99104385 200.98276718 460.19423857 199.0625 462.4375 C192.80077282 469.62525726 185.9443726 476.21302284 178.625 482.3125 C177.87186523 482.94430176 177.87186523 482.94430176 177.10351562 483.58886719 C119.56618525 531.60346867 47.43050515 552.35652874 -26.82421875 546.8515625 C-80.30184384 541.80491905 -132.25901286 519.79063969 -173.375 485.3125 C-174.1170166 484.70365967 -174.1170166 484.70365967 -174.87402344 484.08251953 C-188.97009203 472.508771 -202.26554099 459.81055848 -213.375 445.3125 C-214.14585937 444.35859375 -214.91671875 443.4046875 -215.7109375 442.421875 C-223.04927565 433.20844099 -229.27915843 423.38045682 -235.375 413.3125 C-235.78105469 412.64911621 -236.18710937 411.98573242 -236.60546875 411.30224609 C-270.34538201 355.755179 -282.1602046 283.83334161 -268.375 220.3125 C-268.18454102 219.41160645 -267.99408203 218.51071289 -267.79785156 217.58251953 C-257.08150532 167.64170409 -233.89619606 122.08260157 -198.375 85.3125 C-197.6948584 84.60512695 -197.0147168 83.89775391 -196.31396484 83.16894531 C-186.86800431 73.39092471 -177.30872123 64.38930262 -166.375 56.3125 C-165.45332031 55.58417969 -164.53164063 54.85585937 -163.58203125 54.10546875 C-116.97304294 17.62029455 -58.63900677 0.13869084 0 0 Z M-64.21582031 11.38842773 C-67.12932421 12.24063888 -70.03894644 12.960593 -73 13.625 C-111.535491 23.18221063 -149.00099055 44.415804 -178.1171875 71.23828125 C-180.14663463 73.10270413 -182.21534156 74.90024554 -184.3125 76.6875 C-192.32376943 83.69736075 -199.58550749 91.25727138 -206.20703125 99.58984375 C-207.61296131 101.35548924 -209.04662233 103.09953823 -210.51171875 104.81640625 C-221.51778121 117.7589034 -230.44879328 132.32130658 -238.375 147.3125 C-238.72014648 147.96428223 -239.06529297 148.61606445 -239.42089844 149.28759766 C-252.55373967 174.31398383 -261.82207024 201.38911321 -266.375 229.3125 C-266.51180176 230.12702637 -266.64860352 230.94155273 -266.78955078 231.78076172 C-271.41590734 260.45165464 -270.85538022 289.88520812 -265.87011719 318.44824219 C-265.45663368 320.84024833 -265.09058493 323.22867764 -264.7578125 325.6328125 C-257.33131087 373.54900793 -231.80886404 420.53349074 -198.86328125 455.63671875 C-196.77838915 457.87871418 -194.78389794 460.1592535 -192.8125 462.5 C-188.71776359 467.20315244 -184.07386038 471.22681508 -179.375 475.3125 C-178.32246135 476.25079158 -177.270398 477.18961653 -176.21875 478.12890625 C-151.32377769 500.15417248 -121.55111928 516.9739613 -90.375 528.3125 C-89.62976074 528.58787598 -88.88452148 528.86325195 -88.11669922 529.14697266 C-75.78912189 533.65666412 -63.2474884 536.78910373 -50.375 539.3125 C-48.89773438 539.61099854 -48.89773438 539.61099854 -47.390625 539.91552734 C-12.68955391 546.7055927 25.26607009 545.26796558 59.625 537.3125 C60.65149658 537.08457764 60.65149658 537.08457764 61.69873047 536.85205078 C95.78922415 529.26240828 128.17235331 514.45139693 156.625 494.3125 C157.31722656 493.82523438 158.00945312 493.33796875 158.72265625 492.8359375 C171.0714812 484.07225527 181.9502366 474.02197808 192.625 463.3125 C193.90117188 462.07113281 193.90117188 462.07113281 195.203125 460.8046875 C201.48798923 454.64846084 207.25717151 448.29762247 212.625 441.3125 C213.14465332 440.6421875 213.66430664 439.971875 214.19970703 439.28125 C222.50359869 428.50965888 229.86478393 417.49674261 236.38867188 405.56201172 C237.55252791 403.4443637 238.74810682 401.34831816 239.953125 399.25390625 C253.09150332 375.99046075 262.35132217 348.68487901 266.625 322.3125 C266.75358398 321.53277832 266.88216797 320.75305664 267.01464844 319.94970703 C267.43724822 317.36389351 267.84681129 314.77640868 268.25 312.1875 C268.37342773 311.40028564 268.49685547 310.61307129 268.62402344 309.80200195 C270.43976898 297.58344281 270.86478515 285.33382582 270.875 273 C270.87567474 272.25783234 270.87634949 271.51566467 270.87704468 270.75100708 C270.85795103 257.41882163 269.91185443 244.46523047 267.625 231.3125 C267.44807617 230.28334473 267.27115234 229.25418945 267.08886719 228.19384766 C259.14614163 183.16449247 240.61908878 140.82679057 211.625 105.3125 C211.20041504 104.79171875 210.77583008 104.2709375 210.33837891 103.734375 C200.9184952 92.23939659 191.11283935 80.78678817 179.625 71.3125 C178.72007812 70.51972656 177.81515625 69.72695312 176.8828125 68.91015625 C141.73059767 38.18785224 98.38262341 17.46574684 52.625 8.3125 C51.24393066 8.02270264 51.24393066 8.02270264 49.83496094 7.72705078 C13.70454289 0.44508926 -28.81750506 0.75821877 -64.21582031 11.38842773 Z " fill="#1727C7" transform="translate(510.375,43.6875)"/>
<path d="M0 0 C5.61 0 11.22 0 17 0 C16.01 0.33 15.02 0.66 14 1 C14.97587255 3.64709159 15.95552145 6.29267447 16.9375 8.9375 C17.35418945 10.06961914 17.35418945 10.06961914 17.77929688 11.22460938 C18.91753451 14.88779139 18.91753451 14.88779139 21 18 C21.34933594 16.94039063 21.69867187 15.88078125 22.05859375 14.7890625 C22.51814988 13.40101541 22.97778964 12.01299601 23.4375 10.625 C23.66759766 9.92632812 23.89769531 9.22765625 24.13476562 8.5078125 C25.88671875 3.2265625 25.88671875 3.2265625 27 1 C25.68 0.67 24.36 0.34 23 0 C30.59 0 38.18 0 46 0 C46 8.58 46 17.16 46 26 C46.99 26 47.98 26 49 26 C49 26.66 49 27.32 49 28 C43.06 28 37.12 28 31 28 C31 27.34 31 26.68 31 26 C31.99 26 32.98 26 34 26 C34 18.08 34 10.16 34 2 C32.02 2 30.04 2 28 2 C27.76216797 3.05574219 27.76216797 3.05574219 27.51953125 4.1328125 C25.57941465 12.3434717 22.95316158 20.10933902 20 28 C17.69 28 15.38 28 13 28 C11.32776718 23.87723451 9.66315937 19.75143325 8 15.625 C7.28457031 13.8615625 7.28457031 13.8615625 6.5546875 12.0625 C6.10351562 10.94101562 5.65234375 9.81953125 5.1875 8.6640625 C4.76855469 7.62717285 4.34960938 6.5902832 3.91796875 5.52197266 C3 3 3 3 3 1 C2.01 0.67 1.02 0.34 0 0 Z " fill="#D5D8F5" transform="translate(557,345)"/>
<path d="M0 0 C5.61 0 11.22 0 17 0 C16.01 0.33 15.02 0.66 14 1 C14.28875 1.96421875 14.5775 2.9284375 14.875 3.921875 C15.24625 5.18515625 15.6175 6.4484375 16 7.75 C16.556875 9.62945312 16.556875 9.62945312 17.125 11.546875 C18 15 18 15 18 19 C18.66 19 19.32 19 20 19 C21.4340423 10.03409442 21.4340423 10.03409442 22 1 C21.34 0.67 20.68 0.34 20 0 C24.62 0 29.24 0 34 0 C33.34 0.33 32.68 0.66 32 1 C32.19335938 1.56847656 32.38671875 2.13695312 32.5859375 2.72265625 C32.97652344 3.88087891 32.97652344 3.88087891 33.375 5.0625 C33.63023437 5.81660156 33.88546875 6.57070313 34.1484375 7.34765625 C35.17400654 10.5419745 36.07833371 13.77416798 37 17 C38.65 11.72 40.3 6.44 42 1 C40.68 0.67 39.36 0.34 38 0 C40.64 0 43.28 0 46 0 C45.34 0.66 44.68 1.32 44 2 C43.43752806 3.77049802 42.95876647 5.56809315 42.52734375 7.375 C42.26759766 8.44234375 42.00785156 9.5096875 41.74023438 10.609375 C41.47533203 11.72828125 41.21042969 12.8471875 40.9375 14 C40.4069276 16.20880981 39.87446977 18.41716784 39.33984375 20.625 C39.10644287 21.60726563 38.87304199 22.58953125 38.63256836 23.6015625 C38 26 38 26 37 28 C34.36 28 31.72 28 29 28 C26.525 20.575 26.525 20.575 24 13 C22.08460953 17.96260257 20.39038565 22.86626838 19 28 C16.36 28 13.72 28 11 28 C8.49353556 21.46074651 6.2816449 14.85719427 4.16210938 8.18359375 C3.91138672 7.41402344 3.66066406 6.64445312 3.40234375 5.8515625 C3.18054443 5.15885254 2.95874512 4.46614258 2.73022461 3.75244141 C2.0424216 1.7886006 2.0424216 1.7886006 0 0 Z " fill="#EAEBF9" transform="translate(635,345)"/>
<path d="M0 0 C1.65 0 3.3 0 5 0 C9.20168297 9.81255616 12.90210939 19.77033509 16.51367188 29.8125 C16.93583984 30.97007812 17.35800781 32.12765625 17.79296875 33.3203125 C18.1696167 34.36461426 18.54626465 35.40891602 18.93432617 36.48486328 C19.8619882 39.11212963 19.8619882 39.11212963 22 41 C15.73 41 9.46 41 3 41 C4.98 40.505 4.98 40.505 7 40 C5.68 36.04 4.36 32.08 3 28 C-0.63 28 -4.26 28 -8 28 C-9.32 31.96 -10.64 35.92 -12 40 C-11.01 40.33 -10.02 40.66 -9 41 C-11.64 41 -14.28 41 -17 41 C-15.515 40.505 -15.515 40.505 -14 40 C-13.53147868 37.97555207 -13.07886058 35.94662441 -12.68798828 33.90576172 C-11.23542106 27.77075281 -8.71304602 21.93284366 -6.4375 16.0625 C-5.9245779 14.72351873 -5.41220394 13.38432736 -4.90039062 12.04492188 C-1.21313001 2.42626002 -1.21313001 2.42626002 0 0 Z " fill="#F0F1FB" transform="translate(358,332)"/>
<path d="M0 0 C3.07365786 1.80803404 4.43019732 2.86039464 6 6 C6 8.31 6 10.62 6 13 C0.72 13 -4.56 13 -10 13 C-9.690625 14.60875 -9.38125 16.2175 -9.0625 17.875 C-8.88847656 18.77992188 -8.71445312 19.68484375 -8.53515625 20.6171875 C-8.10036299 22.99956317 -8.10036299 22.99956317 -7 25 C-1.46930887 25.43933257 -1.46930887 25.43933257 3.5 23.5 C3.995 23.005 4.49 22.51 5 22 C3.63016497 25.16115776 3.0109362 25.9927092 0 28 C-4.96522649 28.62976838 -10.46055468 29.13384828 -15.1171875 27.0546875 C-19.0076748 23.97713784 -20.67759547 20.71525067 -21.25 15.89453125 C-21.54309301 10.4265147 -20.73490514 7.23962205 -17 3 C-11.60612597 -0.88990227 -6.44164883 -0.82859383 0 0 Z " fill="#F4F4FC" transform="translate(628,345)"/>
<path d="M0 0 C3.17454605 1.65494746 5.37675639 3.75351278 7 7 C7 8.98 7 10.96 7 13 C1.72 13 -3.56 13 -9 13 C-8.87625 14.423125 -8.7525 15.84625 -8.625 17.3125 C-8.55539062 18.11300781 -8.48578125 18.91351563 -8.4140625 19.73828125 C-8.10435574 22.27224441 -8.10435574 22.27224441 -6 25 C-4.03638136 25.57748803 -4.03638136 25.57748803 -1.875 25.6875 C-0.59625 25.790625 0.6825 25.89375 2 26 C1.67 26.66 1.34 27.32 1 28 C-1.06183633 28.08150744 -3.12461349 28.1394194 -5.1875 28.1875 C-6.91033203 28.23970703 -6.91033203 28.23970703 -8.66796875 28.29296875 C-12.32209966 27.9716794 -14.09309179 27.18537207 -17 25 C-20.27754125 20.47925345 -20.56956219 16.05641039 -20.421875 10.62890625 C-19.74522666 6.41238468 -18.17517271 4.81435763 -15 2 C-10.31812291 -0.8688949 -5.32345927 -0.77697888 0 0 Z " fill="#F4F5FC" transform="translate(521,345)"/>
<path d="M0 0 C3.63 0 7.26 0 11 0 C11 12.87 11 25.74 11 39 C11.99 39.33 12.98 39.66 14 40 C8.39 40 2.78 40 -3 40 C-1.515 39.505 -1.515 39.505 0 39 C0 26.13 0 13.26 0 0 Z " fill="#FCFCFE" transform="translate(426,333)"/>
<path d="M0 0 C3.63 0 7.26 0 11 0 C11 12.87 11 25.74 11 39 C11.99 39.33 12.98 39.66 14 40 C8.39 40 2.78 40 -3 40 C-1.515 39.505 -1.515 39.505 0 39 C0 26.13 0 13.26 0 0 Z " fill="#F9FAFD" transform="translate(385,333)"/>
<path d="M0 0 C0 2.97 0 5.94 0 9 C2.64 9 5.28 9 8 9 C8 9.33 8 9.66 8 10 C5.36 10 2.72 10 0 10 C0.33 18.25 0.66 26.5 1 35 C3.475 34.505 3.475 34.505 6 34 C7.37466625 31.52363988 7.37466625 31.52363988 8 29 C8.33 29.66 8.66 30.32 9 31 C6.59016393 35.70491803 6.59016393 35.70491803 4 37 C1.5390625 37.30859375 1.5390625 37.30859375 -1.375 37.4375 C-2.33148438 37.49808594 -3.28796875 37.55867188 -4.2734375 37.62109375 C-7 37 -7 37 -9.3359375 34.65234375 C-11.94832069 30.13451261 -11.42816955 25.18227417 -11.25 20.125 C-11.23195313 19.15046875 -11.21390625 18.1759375 -11.1953125 17.171875 C-11.14841734 14.78022193 -11.08280907 12.39063403 -11 10 C-11.99 9.67 -12.98 9.34 -14 9 C-13.01 9 -12.02 9 -11 9 C-11 6.69 -11 4.38 -11 2 C-7.17010894 0.19769832 -4.21878192 -0.19622241 0 0 Z " fill="#F0F1FB" transform="translate(491,336)"/>
<path d="M0 0 C4.62 0 9.24 0 14 0 C14.33 0.99 14.66 1.98 15 3 C15.350625 2.505 15.70125 2.01 16.0625 1.5 C19.02552179 -0.79395236 21.37042697 -0.38888282 25 0 C27 1.0625 27 1.0625 28 3 C27.55555556 9.44444444 27.55555556 9.44444444 26 11 C23.0625 11.1875 23.0625 11.1875 20 11 C19.34 10.34 18.68 9.68 18 9 C18 7.68 18 6.36 18 5 C18.99 5 19.98 5 21 5 C21 4.01 21 3.02 21 2 C17.37206002 3.86566488 17.37206002 3.86566488 15 7 C14.84876169 8.5195764 14.75118307 10.04472502 14.68359375 11.5703125 C14.64169922 12.46621094 14.59980469 13.36210937 14.55664062 14.28515625 C14.51732422 15.22230469 14.47800781 16.15945313 14.4375 17.125 C14.39431641 18.06988281 14.35113281 19.01476562 14.30664062 19.98828125 C14.20040928 22.32537092 14.09836824 24.6625683 14 27 C15.32 27.33 16.64 27.66 18 28 C12.06 28 6.12 28 0 28 C0.99 27.67 1.98 27.34 3 27 C3 18.42 3 9.84 3 1 C2.01 0.67 1.02 0.34 0 0 Z " fill="#F2F3FC" transform="translate(530,345)"/>
<path d="M0 0 C4.08319884 -0.0871142 8.16615864 -0.14043048 12.25 -0.1875 C13.40886719 -0.21263672 14.56773437 -0.23777344 15.76171875 -0.26367188 C16.87675781 -0.27333984 17.99179687 -0.28300781 19.140625 -0.29296875 C20.16704102 -0.3086792 21.19345703 -0.32438965 22.25097656 -0.34057617 C25.39257419 0.04863597 26.7463083 0.81267143 29 3 C29.52799676 5.76142303 29.18598981 8.16365545 29 11 C28.360625 11.103125 27.72125 11.20625 27.0625 11.3125 C26.381875 11.539375 25.70125 11.76625 25 12 C24.67 12.99 24.34 13.98 24 15 C20.18751574 15.02887236 16.3750593 15.04675492 12.5625 15.0625 C11.47388672 15.07087891 10.38527344 15.07925781 9.26367188 15.08789062 C8.22919922 15.09111328 7.19472656 15.09433594 6.12890625 15.09765625 C4.69140015 15.10551147 4.69140015 15.10551147 3.22485352 15.11352539 C1 15 1 15 0 14 C-0.07271741 11.64686445 -0.08370868 9.29166332 -0.0625 6.9375 C-0.05347656 5.64714844 -0.04445313 4.35679687 -0.03515625 3.02734375 C-0.02355469 2.02832031 -0.01195312 1.02929688 0 0 Z " fill="#B7BCEE" transform="translate(499,271)"/>
<path d="M0 0 C2.7421875 1.81640625 2.7421875 1.81640625 5 5 C5.60721198 8.79067882 5.47162614 12.48612837 5.3125 16.3125 C5.27866211 17.85260742 5.27866211 17.85260742 5.24414062 19.42382812 C5.18537575 21.9507179 5.10327849 24.47460255 5 27 C5.99 27.33 6.98 27.66 8 28 C2.72 28 -2.56 28 -8 28 C-7.34 27.67 -6.68 27.34 -6 27 C-6 19.08 -6 11.16 -6 3 C-7.32 3 -8.64 3 -10 3 C-10 2.34 -10 1.68 -10 1 C-6.84203893 -0.57898053 -3.39329364 -0.81928171 0 0 Z " fill="#F4F5FC" transform="translate(469,345)"/>
<path d="M0 0 C5.61 0 11.22 0 17 0 C16.01 0.33 15.02 0.66 14 1 C14.28875 1.94101562 14.5775 2.88203125 14.875 3.8515625 C15.24625 5.09679687 15.6175 6.34203125 16 7.625 C16.37125 8.85476563 16.7425 10.08453125 17.125 11.3515625 C17.93727719 14.73846826 18.17041013 17.53854429 18 21 C18.66 21 19.32 21 20 21 C19.67 23.31 19.34 25.62 19 28 C16.36 28 13.72 28 11 28 C8.49353556 21.46074651 6.2816449 14.85719427 4.16210938 8.18359375 C3.91138672 7.41402344 3.66066406 6.64445312 3.40234375 5.8515625 C3.18054443 5.15885254 2.95874512 4.46614258 2.73022461 3.75244141 C2.0424216 1.7886006 2.0424216 1.7886006 0 0 Z " fill="#F5F6FC" transform="translate(635,345)"/>
<path d="M0 0 C1.08764648 -0.01740234 1.08764648 -0.01740234 2.19726562 -0.03515625 C8.727826 0.00004893 13.4106469 1.50382339 18.4375 5.875 C21.92750214 9.98088487 21.75033797 13.45034936 21.8125 18.6875 C21.83828125 19.98300781 21.8640625 21.27851563 21.890625 22.61328125 C21.38400554 28.42131144 18.80388583 32.19508499 15.375 36.75 C12.94250599 40.37750977 11.75016732 42.92981553 12.0859375 47.3125 C12.99526697 51.24795871 14.71064028 54.80355626 16.5625 58.375 C15.5725 58.375 14.5825 58.375 13.5625 58.375 C10.48968955 53.21706817 8.25575678 48.49547253 9.5625 42.375 C11.39562041 37.70887532 13.68277874 33.54047014 16.703125 29.5390625 C18.94997558 25.71564029 19.09833477 23.28267727 19.0625 18.875 C19.0728125 17.6065625 19.083125 16.338125 19.09375 15.03125 C18.48399173 10.83467839 17.18718161 8.66322471 14.5625 5.375 C9.5708992 1.88087944 2.45376327 1.77516229 -3.4375 2.375 C-8.92899116 3.623901 -13.33003981 5.39589794 -17.4375 9.375 C-19.3362983 13.17259661 -18.81310725 18.03633244 -18.95507812 22.25390625 C-19.22358631 28.16108631 -19.22358631 28.16108631 -21.4375 30.375 C-21.08092001 35.6345548 -20.00585699 40.35625763 -18.4375 45.375 C-17.52226562 45.41238281 -16.60703125 45.44976562 -15.6640625 45.48828125 C-14.47554688 45.55402344 -13.28703125 45.61976563 -12.0625 45.6875 C-10.87914062 45.74550781 -9.69578125 45.80351562 -8.4765625 45.86328125 C-7.47367187 46.03214844 -6.47078125 46.20101562 -5.4375 46.375 C-3.30163322 49.57880017 -3.20617825 50.39439967 -3.3125 54.0625 C-3.33054687 54.87074219 -3.34859375 55.67898438 -3.3671875 56.51171875 C-3.39039063 57.12660156 -3.41359375 57.74148438 -3.4375 58.375 C-4.0975 58.375 -4.7575 58.375 -5.4375 58.375 C-5.7675 55.405 -6.0975 52.435 -6.4375 49.375 C-9.66950162 48.56699959 -11.34879509 48.31784943 -14.5 48.5 C-18.4375 48.375 -18.4375 48.375 -20.3125 47.125 C-22.82963092 43.20946301 -23.81190998 40.04796026 -24.25 35.375 C-24.41435547 33.828125 -24.41435547 33.828125 -24.58203125 32.25 C-24.4375 29.375 -24.4375 29.375 -22.93359375 27.421875 C-20.75678561 24.44368319 -21.38758715 22.23973908 -21.6875 18.625 C-21.80384758 13.54272598 -21.65805382 10.61012533 -18.3125 6.6875 C-12.87210975 1.23501999 -7.41823836 -0.11806215 0 0 Z " fill="#E2E4F8" transform="translate(512.4375,261.625)"/>
<path d="M0 0 C3.3 0 6.6 0 10 0 C11.05556451 5.7626003 10.94831638 11.1059076 10.5625 16.9375 C10.51029297 17.81212891 10.45808594 18.68675781 10.40429688 19.58789062 C10.2757979 21.72564632 10.13877359 23.86288669 10 26 C10.99 26.33 11.98 26.66 13 27 C7.72 27 2.44 27 -3 27 C-2.01 26.67 -1.02 26.34 0 26 C0 17.42 0 8.84 0 0 Z " fill="#FBFBFE" transform="translate(446,346)"/>
<path d="M0 0 C3.3 0 6.6 0 10 0 C10 8.58 10 17.16 10 26 C10.99 26.33 11.98 26.66 13 27 C7.72 27 2.44 27 -3 27 C-2.01 26.67 -1.02 26.34 0 26 C0 17.42 0 8.84 0 0 Z " fill="#FBFBFE" transform="translate(592,346)"/>
<path d="M0 0 C2.45862401 -0.05383848 4.9160755 -0.09359038 7.375 -0.125 C8.42300781 -0.15013672 8.42300781 -0.15013672 9.4921875 -0.17578125 C11.32897486 -0.19344267 13.16601963 -0.10303261 15 0 C15.66 0.66 16.32 1.32 17 2 C18.32 2.33 19.64 2.66 21 3 C21 10.92 21 18.84 21 27 C18.69 27 16.38 27 14 27 C14 18.42 14 9.84 14 1 C10.7 1 7.4 1 4 1 C4 9.58 4 18.16 4 27 C2.68 27.33 1.36 27.66 0 28 C0 27.34 0 26.68 0 26 C0.99 26 1.98 26 3 26 C3 18.08 3 10.16 3 2 C2.01 2 1.02 2 0 2 C0 1.34 0 0.68 0 0 Z " fill="#303ECD" transform="translate(442,345)"/>
<path d="M0 0 C10.93286835 -0.6277245 10.93286835 -0.6277245 15.1875 1.875 C18.36933222 5.60542398 18.08951786 8.1660357 18 13 C12.55306686 13.09688221 7.36095333 13.12862175 2 12 C1.9729957 10.54176788 1.95360213 9.08339325 1.9375 7.625 C1.92589844 6.81289063 1.91429687 6.00078125 1.90234375 5.1640625 C2 3 2 3 3 1 C2.01 0.67 1.02 0.34 0 0 Z " fill="#F4F4FC" transform="translate(616,345)"/>
<path d="M0 0 C4.55618095 0.17867376 6.51909527 0.56002333 9.9375 3.6875 C12 7 12 7 12 13 C6.72 13 1.44 13 -4 13 C-4 12.67 -4 12.34 -4 12 C-2.02 12 -0.04 12 2 12 C1.85831863 10.56208484 1.71148957 9.1246763 1.5625 7.6875 C1.48128906 6.88699219 1.40007813 6.08648437 1.31640625 5.26171875 C1.04734307 2.83912821 1.04734307 2.83912821 0 0 Z " fill="#F9FAFD" transform="translate(516,345)"/>
<path d="M0 0 C1.91015625 0.23046875 1.91015625 0.23046875 3.91015625 2.23046875 C3.33323317 8.80739183 3.33323317 8.80739183 1.91015625 10.23046875 C-3.93090335 10.60132968 -3.93090335 10.60132968 -6.08984375 10.23046875 C-8.08984375 7.23046875 -8.08984375 7.23046875 -7.77734375 4.10546875 C-6.59353467 -0.84500557 -4.80346603 0.09589497 0 0 Z " fill="#EFF1FB" transform="translate(599.08984375,330.76953125)"/>
<path d="M0 0 C1.2065625 0.0309375 1.2065625 0.0309375 2.4375 0.0625 C1.1175 0.3925 -0.2025 0.7225 -1.5625 1.0625 C-1.5625 2.7125 -1.5625 4.3625 -1.5625 6.0625 C-0.2425 6.0625 1.0775 6.0625 2.4375 6.0625 C2.4375 5.0725 2.4375 4.0825 2.4375 3.0625 C3.89542884 3.00850264 5.35392712 2.96970823 6.8125 2.9375 C7.62460937 2.91429687 8.43671875 2.89109375 9.2734375 2.8671875 C11.4375 3.0625 11.4375 3.0625 13.4375 5.0625 C13.66455078 7.49267578 13.66455078 7.49267578 13.6328125 10.5078125 C13.62636719 11.58417969 13.61992188 12.66054688 13.61328125 13.76953125 C13.59652344 14.89746094 13.57976563 16.02539062 13.5625 17.1875 C13.55347656 18.32316406 13.54445313 19.45882813 13.53515625 20.62890625 C13.51153098 23.44031299 13.47859013 26.25130298 13.4375 29.0625 C12.7775 29.0625 12.1175 29.0625 11.4375 29.0625 C11.1075 21.4725 10.7775 13.8825 10.4375 6.0625 C7.4675 5.5675 7.4675 5.5675 4.4375 5.0625 C4.4375 5.7225 4.4375 6.3825 4.4375 7.0625 C1.7975 7.0625 -0.8425 7.0625 -3.5625 7.0625 C-3.60504356 5.06295254 -3.60330783 3.06208364 -3.5625 1.0625 C-2.5625 0.0625 -2.5625 0.0625 0 0 Z " fill="#DDE0F7" transform="translate(502.5625,290.9375)"/>
<path d="M0 0 C3.96 0 7.92 0 12 0 C10.515 1.98 10.515 1.98 9 4 C8.27954633 7.15118325 8.27954633 7.15118325 8 10 C5.36 10 2.72 10 0 10 C0 6.7 0 3.4 0 0 Z " fill="#0B1CC5" transform="translate(502,273)"/>
<path d="M0 0 C0.33 0 0.66 0 1 0 C2.168285 7.91055624 2.36613897 12.45485804 -2.5390625 19.078125 C-5.6081401 23.3544701 -7.88980354 26.54361694 -7.4765625 31.9375 C-6.56723303 35.87295871 -4.85185972 39.42855626 -3 43 C-3.99 43 -4.98 43 -6 43 C-9.07281045 37.84206817 -11.30674322 33.12047253 -10 27 C-8.14521925 22.27873991 -5.83333452 18.08796451 -2.75 14.0625 C-0.18542017 9.57448529 -0.18126056 5.09342175 0 0 Z " fill="#D2D5F4" transform="translate(532,277)"/>
<path d="M0 0 C3.625 -0.1875 3.625 -0.1875 7 0 C7 3.3 7 6.6 7 10 C3.37 10 -0.26 10 -4 10 C-2.68 8.02 -1.36 6.04 0 4 C-0.66 3.67 -1.32 3.34 -2 3 C-1.34 2.01 -0.68 1.02 0 0 Z " fill="#0A1BC4" transform="translate(515,273)"/>
<path d="M0 0 C2 1 2 1 3.0703125 3.94140625 C3.41835938 5.13636719 3.76640625 6.33132813 4.125 7.5625 C4.65480469 9.35880859 4.65480469 9.35880859 5.1953125 11.19140625 C5.46085937 12.11824219 5.72640625 13.04507812 6 14 C2.7 14 -0.6 14 -4 14 C-2 4.42857143 -2 4.42857143 0 0 Z " fill="#1222C6" transform="translate(355,344)"/>
<path d="M0 0 C1.32 0.33 2.64 0.66 4 1 C4 4.3 4 7.6 4 11 C2.02 11 0.04 11 -2 11 C-2.05399736 9.54207116 -2.09279177 8.08357288 -2.125 6.625 C-2.15980469 5.40683594 -2.15980469 5.40683594 -2.1953125 4.1640625 C-2 2 -2 2 0 0 Z " fill="#1C2CC9" transform="translate(620,346)"/>
<path d="M0 0 C1.32 0 2.64 0 4 0 C5.20272819 2.40545638 5.10071472 3.94996953 5.0625 6.625 C5.05347656 7.44226563 5.04445313 8.25953125 5.03515625 9.1015625 C5.02355469 9.72804688 5.01195312 10.35453125 5 11 C3.02 11 1.04 11 -1 11 C-1.0270043 9.54176788 -1.04639787 8.08339325 -1.0625 6.625 C-1.07410156 5.81289063 -1.08570313 5.00078125 -1.09765625 4.1640625 C-1 2 -1 2 0 0 Z " fill="#1D2CC9" transform="translate(513,346)"/>
<path d="M0 0 C16.82541054 -0.63007779 16.82541054 -0.63007779 23.875 5.5 C27.27162457 9.4960289 27.11277729 12.60949372 27.0625 17.6875 C27.05347656 18.86699219 27.04445313 20.04648437 27.03515625 21.26171875 C27.02355469 22.16535156 27.01195312 23.06898438 27 24 C26.67 24 26.34 24 26 24 C25.90203125 23.13117188 25.8040625 22.26234375 25.703125 21.3671875 C24.66058732 12.40519666 24.66058732 12.40519666 20 5 C16.28140332 2.52991766 12.0797833 2.34163742 7.75 1.875 C6.63238281 1.74544922 6.63238281 1.74544922 5.4921875 1.61328125 C3.66222154 1.40213133 1.83120121 1.20015455 0 1 C0 0.67 0 0.34 0 0 Z " fill="#EBECFA" transform="translate(507,262)"/>
<path d="M0 0 C1.95766281 -0.08082094 3.91626728 -0.13910778 5.875 -0.1875 C7.51082031 -0.23970703 7.51082031 -0.23970703 9.1796875 -0.29296875 C10.11039062 -0.19628906 11.04109375 -0.09960938 12 0 C14.13586678 3.20380017 14.23132175 4.01939967 14.125 7.6875 C14.10695313 8.49574219 14.08890625 9.30398438 14.0703125 10.13671875 C14.03550781 11.05904297 14.03550781 11.05904297 14 12 C13.34 12 12.68 12 12 12 C11.67 9.03 11.34 6.06 11 3 C7.32636934 2.08159233 3.74787912 1.50452219 0 1 C0 0.67 0 0.34 0 0 Z " fill="#E4E6F8" transform="translate(495,308)"/>
<path d="M0 0 C1.32 0.66 2.64 1.32 4 2 C3.67 4.31 3.34 6.62 3 9 C2.01 9 1.02 9 0 9 C-1.125 2.25 -1.125 2.25 0 0 Z " fill="#8F97E4" transform="translate(524,272)"/>
<path d="M0 0 C0 0.99 0 1.98 0 3 C-0.66 3 -1.32 3 -2 3 C-2 3.99 -2 4.98 -2 6 C-3.32 6 -4.64 6 -6 6 C-6 4.35 -6 2.7 -6 1 C-3.92446352 0.4465236 -2.15634036 0 0 0 Z " fill="#727CDD" transform="translate(507,291)"/>
<path d="M0 0 C0.33 0 0.66 0 1 0 C2.70159453 11.52164009 2.70159453 11.52164009 -1 17 C-1.66 16.34 -2.32 15.68 -3 15 C-2.52433594 14.18789063 -2.52433594 14.18789063 -2.0390625 13.359375 C-0.81692026 10.5842851 -0.59056564 8.26791902 -0.375 5.25 C-0.30023437 4.26515625 -0.22546875 3.2803125 -0.1484375 2.265625 C-0.09945312 1.51796875 -0.05046875 0.7703125 0 0 Z " fill="#B6BBED" transform="translate(532,277)"/>
<path d="M0 0 C0.66 0.33 1.32 0.66 2 1 C1.75 3.375 1.75 3.375 1 6 C-1.0625 7.3125 -1.0625 7.3125 -3 8 C-3.36923077 3.44615385 -3.36923077 3.44615385 -1.5 1.1875 C-1.005 0.795625 -0.51 0.40375 0 0 Z " fill="#EDEEFA" transform="translate(513,274)"/>
<path d="M0 0 C-3.22515763 1.73662334 -6.51329166 2.8905928 -10 4 C-10.33 3.34 -10.66 2.68 -11 2 C-6.89657963 -0.38570952 -4.61380251 -1.49270081 0 0 Z " fill="#C5C9F1" transform="translate(509,263)"/>
<path d="M0 0 C3.96 0 7.92 0 12 0 C12 0.99 12 1.98 12 3 C7.97007218 2.44687265 3.97977076 1.8441938 0 1 C0 0.67 0 0.34 0 0 Z " fill="#D1D4F4" transform="translate(495,308)"/>
<path d="M0 0 C0.66 0 1.32 0 2 0 C0.8141763 3.37503669 -0.27573689 5.64722731 -3 8 C-3.33 7.34 -3.66 6.68 -4 6 C-2.7260411 3.96166576 -1.38938077 1.96147874 0 0 Z " fill="#DADDF6" transform="translate(528,293)"/>
</svg>
